<mxfile host="app.diagrams.net" modified="2023-04-03T09:57:03.151Z" agent="Mozilla/5.0 (X11; Ubuntu; Linux x86_64; rv:109.0) Gecko/20100101 Firefox/111.0" etag="GJpzC8Q54IVIKn84VpUC" version="21.1.2" type="device">
  <diagram id="zXVWqTHGve0TDCFRNLVs" name="Page-1">
    <mxGraphModel dx="1364" dy="795" grid="1" gridSize="10" guides="1" tooltips="1" connect="1" arrows="1" fold="1" page="1" pageScale="1" pageWidth="1169" pageHeight="827" math="0" shadow="0">
      <root>
        <mxCell id="0" />
        <mxCell id="1" parent="0" />
        <mxCell id="OqOjSchPODBWyF3ketvU-1" value="" style="ellipse;html=1;shape=startState;fillColor=#000000;strokeColor=#ff0000;" parent="1" vertex="1">
          <mxGeometry x="95" y="20" width="30" height="30" as="geometry" />
        </mxCell>
        <mxCell id="OqOjSchPODBWyF3ketvU-2" value="" style="edgeStyle=orthogonalEdgeStyle;html=1;verticalAlign=bottom;endArrow=open;endSize=8;strokeColor=#ff0000;exitX=0.5;exitY=1;exitDx=0;exitDy=0;" parent="1" source="OqOjSchPODBWyF3ketvU-1" edge="1">
          <mxGeometry relative="1" as="geometry">
            <mxPoint x="110" y="90" as="targetPoint" />
            <mxPoint x="110" y="50" as="sourcePoint" />
          </mxGeometry>
        </mxCell>
        <mxCell id="OqOjSchPODBWyF3ketvU-3" value="Ouverture du module&lt;br&gt;de commande" style="rounded=1;whiteSpace=wrap;html=1;arcSize=40;fontColor=#000000;fillColor=#ffffc0;strokeColor=#ff0000;" parent="1" vertex="1">
          <mxGeometry x="50" y="90" width="120" height="40" as="geometry" />
        </mxCell>
        <mxCell id="OqOjSchPODBWyF3ketvU-4" value="" style="edgeStyle=orthogonalEdgeStyle;html=1;verticalAlign=bottom;endArrow=open;endSize=8;strokeColor=#ff0000;entryX=0;entryY=0.5;entryDx=0;entryDy=0;" parent="1" source="OqOjSchPODBWyF3ketvU-3" target="OqOjSchPODBWyF3ketvU-5" edge="1">
          <mxGeometry relative="1" as="geometry">
            <mxPoint x="260" y="110" as="targetPoint" />
            <Array as="points" />
          </mxGeometry>
        </mxCell>
        <mxCell id="OqOjSchPODBWyF3ketvU-10" style="edgeStyle=orthogonalEdgeStyle;rounded=0;orthogonalLoop=1;jettySize=auto;html=1;exitX=1;exitY=0.5;exitDx=0;exitDy=0;entryX=0;entryY=0.5;entryDx=0;entryDy=0;endArrow=open;endFill=0;strokeColor=#FF0000;" parent="1" source="OqOjSchPODBWyF3ketvU-5" target="OqOjSchPODBWyF3ketvU-7" edge="1">
          <mxGeometry relative="1" as="geometry" />
        </mxCell>
        <mxCell id="OqOjSchPODBWyF3ketvU-5" value="Formulaire de commande vierge" style="rounded=1;whiteSpace=wrap;html=1;arcSize=40;fontColor=#000000;fillColor=#ffffc0;strokeColor=#ff0000;" parent="1" vertex="1">
          <mxGeometry x="240" y="90" width="120" height="40" as="geometry" />
        </mxCell>
        <mxCell id="OqOjSchPODBWyF3ketvU-14" style="edgeStyle=orthogonalEdgeStyle;rounded=0;orthogonalLoop=1;jettySize=auto;html=1;exitX=1;exitY=0.5;exitDx=0;exitDy=0;entryX=0;entryY=0.5;entryDx=0;entryDy=0;endArrow=open;endFill=0;strokeColor=#FF0000;" parent="1" source="OqOjSchPODBWyF3ketvU-7" target="OqOjSchPODBWyF3ketvU-11" edge="1">
          <mxGeometry relative="1" as="geometry" />
        </mxCell>
        <mxCell id="OqOjSchPODBWyF3ketvU-7" value="Saisie référence&lt;br&gt;client" style="rounded=1;whiteSpace=wrap;html=1;arcSize=40;fontColor=#000000;fillColor=#ffffc0;strokeColor=#ff0000;" parent="1" vertex="1">
          <mxGeometry x="430" y="90" width="120" height="40" as="geometry" />
        </mxCell>
        <mxCell id="OqOjSchPODBWyF3ketvU-11" value="Contrôle&lt;br&gt;existence&lt;br&gt;référence" style="rhombus;whiteSpace=wrap;html=1;fillColor=#ffffc0;strokeColor=#ff0000;" parent="1" vertex="1">
          <mxGeometry x="615" y="75" width="130" height="70" as="geometry" />
        </mxCell>
        <mxCell id="OqOjSchPODBWyF3ketvU-12" value="" style="edgeStyle=orthogonalEdgeStyle;html=1;align=left;verticalAlign=bottom;endArrow=open;endSize=8;strokeColor=#ff0000;exitX=1;exitY=0.5;exitDx=0;exitDy=0;entryX=0;entryY=0.5;entryDx=0;entryDy=0;" parent="1" source="OqOjSchPODBWyF3ketvU-11" target="OqOjSchPODBWyF3ketvU-18" edge="1">
          <mxGeometry x="-0.5385" relative="1" as="geometry">
            <mxPoint x="810" y="110" as="targetPoint" />
            <mxPoint as="offset" />
          </mxGeometry>
        </mxCell>
        <mxCell id="OqOjSchPODBWyF3ketvU-13" value="" style="edgeStyle=orthogonalEdgeStyle;html=1;align=left;verticalAlign=top;endArrow=open;endSize=8;strokeColor=#ff0000;entryX=0.5;entryY=0;entryDx=0;entryDy=0;" parent="1" source="OqOjSchPODBWyF3ketvU-11" target="OqOjSchPODBWyF3ketvU-7" edge="1">
          <mxGeometry x="0.4286" y="-20" relative="1" as="geometry">
            <mxPoint x="490" y="90" as="targetPoint" />
            <Array as="points">
              <mxPoint x="680" y="40" />
              <mxPoint x="490" y="40" />
            </Array>
            <mxPoint as="offset" />
          </mxGeometry>
        </mxCell>
        <mxCell id="OqOjSchPODBWyF3ketvU-18" value="Autocomplétion&lt;br&gt;infos client" style="rounded=1;whiteSpace=wrap;html=1;arcSize=40;fontColor=#000000;fillColor=#ffffc0;strokeColor=#ff0000;" parent="1" vertex="1">
          <mxGeometry x="870" y="90" width="110" height="40" as="geometry" />
        </mxCell>
        <mxCell id="OqOjSchPODBWyF3ketvU-19" value="" style="edgeStyle=orthogonalEdgeStyle;html=1;verticalAlign=bottom;endArrow=open;endSize=8;strokeColor=#ff0000;exitX=1;exitY=0.5;exitDx=0;exitDy=0;entryX=0.5;entryY=0;entryDx=0;entryDy=0;" parent="1" source="OqOjSchPODBWyF3ketvU-18" target="OqOjSchPODBWyF3ketvU-21" edge="1">
          <mxGeometry relative="1" as="geometry">
            <mxPoint x="1080" y="160" as="targetPoint" />
            <Array as="points">
              <mxPoint x="1080" y="110" />
            </Array>
          </mxGeometry>
        </mxCell>
        <mxCell id="OqOjSchPODBWyF3ketvU-20" value="[référence client&amp;nbsp;ok]" style="text;html=1;align=center;verticalAlign=middle;resizable=0;points=[];autosize=1;" parent="1" vertex="1">
          <mxGeometry x="745" y="90" width="120" height="20" as="geometry" />
        </mxCell>
        <mxCell id="OqOjSchPODBWyF3ketvU-21" value="Modification&lt;br&gt;infos&lt;br&gt;client" style="rhombus;whiteSpace=wrap;html=1;fillColor=#ffffc0;strokeColor=#ff0000;" parent="1" vertex="1">
          <mxGeometry x="1000" y="194" width="160" height="80" as="geometry" />
        </mxCell>
        <mxCell id="OqOjSchPODBWyF3ketvU-22" value="" style="edgeStyle=orthogonalEdgeStyle;html=1;align=left;verticalAlign=bottom;endArrow=open;endSize=8;strokeColor=#ff0000;exitX=0.5;exitY=1;exitDx=0;exitDy=0;entryX=0.5;entryY=0;entryDx=0;entryDy=0;" parent="1" source="OqOjSchPODBWyF3ketvU-21" target="OqOjSchPODBWyF3ketvU-31" edge="1">
          <mxGeometry x="-1" y="-114" relative="1" as="geometry">
            <mxPoint x="1080" y="304" as="targetPoint" />
            <mxPoint x="4" y="-30" as="offset" />
          </mxGeometry>
        </mxCell>
        <mxCell id="OqOjSchPODBWyF3ketvU-23" value="" style="edgeStyle=orthogonalEdgeStyle;html=1;align=left;verticalAlign=top;endArrow=open;endSize=8;strokeColor=#ff0000;exitX=0;exitY=0.5;exitDx=0;exitDy=0;" parent="1" source="OqOjSchPODBWyF3ketvU-21" edge="1">
          <mxGeometry x="-1" y="105" relative="1" as="geometry">
            <mxPoint x="930" y="234" as="targetPoint" />
            <Array as="points">
              <mxPoint x="940" y="234" />
            </Array>
            <mxPoint x="90" y="-50" as="offset" />
          </mxGeometry>
        </mxCell>
        <mxCell id="OqOjSchPODBWyF3ketvU-26" value="[non]" style="text;html=1;align=center;verticalAlign=middle;resizable=0;points=[];autosize=1;" parent="1" vertex="1">
          <mxGeometry x="950" y="214" width="40" height="20" as="geometry" />
        </mxCell>
        <mxCell id="OqOjSchPODBWyF3ketvU-27" value="[oui]" style="text;html=1;align=center;verticalAlign=middle;resizable=0;points=[];autosize=1;" parent="1" vertex="1">
          <mxGeometry x="1080" y="284" width="40" height="20" as="geometry" />
        </mxCell>
        <mxCell id="OqOjSchPODBWyF3ketvU-29" value="Saisie référence&lt;br&gt;produit" style="rounded=1;whiteSpace=wrap;html=1;arcSize=40;fontColor=#000000;fillColor=#ffffc0;strokeColor=#ff0000;" parent="1" vertex="1">
          <mxGeometry x="810" y="214" width="120" height="40" as="geometry" />
        </mxCell>
        <mxCell id="OqOjSchPODBWyF3ketvU-30" value="" style="edgeStyle=orthogonalEdgeStyle;html=1;verticalAlign=bottom;endArrow=open;endSize=8;strokeColor=#ff0000;exitX=0;exitY=0.5;exitDx=0;exitDy=0;entryX=1;entryY=0.5;entryDx=0;entryDy=0;" parent="1" source="OqOjSchPODBWyF3ketvU-29" target="OqOjSchPODBWyF3ketvU-43" edge="1">
          <mxGeometry relative="1" as="geometry">
            <mxPoint x="770" y="234" as="targetPoint" />
          </mxGeometry>
        </mxCell>
        <mxCell id="OqOjSchPODBWyF3ketvU-31" value="Proposition màj&lt;br&gt;fichier client" style="rhombus;whiteSpace=wrap;html=1;fillColor=#ffffc0;strokeColor=#ff0000;" parent="1" vertex="1">
          <mxGeometry x="1002.5" y="304" width="155" height="60" as="geometry" />
        </mxCell>
        <mxCell id="OqOjSchPODBWyF3ketvU-32" value="" style="edgeStyle=orthogonalEdgeStyle;html=1;align=left;verticalAlign=bottom;endArrow=open;endSize=8;strokeColor=#ff0000;exitX=0;exitY=0.5;exitDx=0;exitDy=0;entryX=0.75;entryY=1;entryDx=0;entryDy=0;" parent="1" source="OqOjSchPODBWyF3ketvU-31" target="OqOjSchPODBWyF3ketvU-29" edge="1">
          <mxGeometry x="0.5122" y="-100" relative="1" as="geometry">
            <mxPoint x="930" y="334" as="targetPoint" />
            <mxPoint as="offset" />
          </mxGeometry>
        </mxCell>
        <mxCell id="OqOjSchPODBWyF3ketvU-33" value="" style="edgeStyle=orthogonalEdgeStyle;html=1;align=left;verticalAlign=top;endArrow=open;endSize=8;strokeColor=#ff0000;exitX=0.5;exitY=1;exitDx=0;exitDy=0;entryX=1;entryY=0.5;entryDx=0;entryDy=0;" parent="1" source="OqOjSchPODBWyF3ketvU-31" target="OqOjSchPODBWyF3ketvU-35" edge="1">
          <mxGeometry x="-1" relative="1" as="geometry">
            <mxPoint x="1010" y="384" as="targetPoint" />
          </mxGeometry>
        </mxCell>
        <mxCell id="OqOjSchPODBWyF3ketvU-34" value="[non]" style="text;html=1;align=center;verticalAlign=middle;resizable=0;points=[];autosize=1;" parent="1" vertex="1">
          <mxGeometry x="960" y="314" width="40" height="20" as="geometry" />
        </mxCell>
        <mxCell id="OqOjSchPODBWyF3ketvU-35" value="Mise à jour fichier&lt;br&gt;client" style="rounded=1;whiteSpace=wrap;html=1;arcSize=40;fontColor=#000000;fillColor=#ffffc0;strokeColor=#ff0000;" parent="1" vertex="1">
          <mxGeometry x="905" y="374" width="120" height="40" as="geometry" />
        </mxCell>
        <mxCell id="OqOjSchPODBWyF3ketvU-36" value="" style="edgeStyle=orthogonalEdgeStyle;html=1;verticalAlign=bottom;endArrow=open;endSize=8;strokeColor=#ff0000;exitX=0;exitY=0.5;exitDx=0;exitDy=0;entryX=0.5;entryY=1;entryDx=0;entryDy=0;" parent="1" source="OqOjSchPODBWyF3ketvU-35" target="OqOjSchPODBWyF3ketvU-29" edge="1">
          <mxGeometry relative="1" as="geometry">
            <mxPoint x="940" y="448" as="targetPoint" />
          </mxGeometry>
        </mxCell>
        <mxCell id="OqOjSchPODBWyF3ketvU-37" value="[oui]" style="text;html=1;align=center;verticalAlign=middle;resizable=0;points=[];autosize=1;" parent="1" vertex="1">
          <mxGeometry x="1040" y="374" width="40" height="20" as="geometry" />
        </mxCell>
        <mxCell id="OqOjSchPODBWyF3ketvU-51" value="" style="edgeStyle=orthogonalEdgeStyle;rounded=0;orthogonalLoop=1;jettySize=auto;html=1;endArrow=open;endFill=0;strokeColor=#FF0000;entryX=1;entryY=0.5;entryDx=0;entryDy=0;" parent="1" source="OqOjSchPODBWyF3ketvU-43" target="OqOjSchPODBWyF3ketvU-52" edge="1">
          <mxGeometry relative="1" as="geometry">
            <mxPoint x="560" y="234" as="targetPoint" />
          </mxGeometry>
        </mxCell>
        <mxCell id="OqOjSchPODBWyF3ketvU-43" value="Contrôle&lt;br&gt;existence&lt;br&gt;référence" style="rhombus;whiteSpace=wrap;html=1;fillColor=#ffffc0;strokeColor=#ff0000;" parent="1" vertex="1">
          <mxGeometry x="640" y="202" width="130" height="64" as="geometry" />
        </mxCell>
        <mxCell id="OqOjSchPODBWyF3ketvU-44" value="" style="edgeStyle=orthogonalEdgeStyle;html=1;align=left;verticalAlign=top;endArrow=open;endSize=8;strokeColor=#ff0000;entryX=0.5;entryY=0;entryDx=0;entryDy=0;exitX=0.5;exitY=0;exitDx=0;exitDy=0;" parent="1" source="OqOjSchPODBWyF3ketvU-43" target="OqOjSchPODBWyF3ketvU-29" edge="1">
          <mxGeometry x="0.4286" y="-20" relative="1" as="geometry">
            <mxPoint x="440" y="214" as="targetPoint" />
            <mxPoint x="630" y="199" as="sourcePoint" />
            <Array as="points">
              <mxPoint x="705" y="164" />
              <mxPoint x="870" y="164" />
            </Array>
            <mxPoint as="offset" />
          </mxGeometry>
        </mxCell>
        <mxCell id="OqOjSchPODBWyF3ketvU-45" value="&lt;span style=&quot;font-size: 11px ; text-align: left ; background-color: rgb(255 , 255 , 255)&quot;&gt;[référence client erronée]&lt;/span&gt;" style="text;html=1;align=center;verticalAlign=middle;resizable=0;points=[];autosize=1;" parent="1" vertex="1">
          <mxGeometry x="515" y="20" width="140" height="20" as="geometry" />
        </mxCell>
        <mxCell id="OqOjSchPODBWyF3ketvU-47" value="&lt;span style=&quot;font-size: 11px ; text-align: left ; background-color: rgb(255 , 255 , 255)&quot;&gt;[référence produit erronée]&lt;/span&gt;" style="text;html=1;align=center;verticalAlign=middle;resizable=0;points=[];autosize=1;" parent="1" vertex="1">
          <mxGeometry x="715" y="145" width="150" height="20" as="geometry" />
        </mxCell>
        <mxCell id="OqOjSchPODBWyF3ketvU-52" value="Affichage infos produit" style="rounded=1;whiteSpace=wrap;html=1;arcSize=40;fontColor=#000000;fillColor=#ffffc0;strokeColor=#ff0000;" parent="1" vertex="1">
          <mxGeometry x="490" y="214" width="120" height="40" as="geometry" />
        </mxCell>
        <mxCell id="OqOjSchPODBWyF3ketvU-53" value="" style="edgeStyle=orthogonalEdgeStyle;html=1;verticalAlign=bottom;endArrow=open;endSize=8;strokeColor=#ff0000;exitX=0;exitY=0.5;exitDx=0;exitDy=0;entryX=1;entryY=0.5;entryDx=0;entryDy=0;" parent="1" source="OqOjSchPODBWyF3ketvU-52" target="OqOjSchPODBWyF3ketvU-54" edge="1">
          <mxGeometry relative="1" as="geometry">
            <mxPoint x="430" y="234" as="targetPoint" />
          </mxGeometry>
        </mxCell>
        <mxCell id="OqOjSchPODBWyF3ketvU-54" value="Saisie quantité" style="rounded=1;whiteSpace=wrap;html=1;arcSize=40;fontColor=#000000;fillColor=#ffffc0;strokeColor=#ff0000;" parent="1" vertex="1">
          <mxGeometry x="330" y="214" width="120" height="40" as="geometry" />
        </mxCell>
        <mxCell id="OqOjSchPODBWyF3ketvU-55" value="" style="edgeStyle=orthogonalEdgeStyle;html=1;verticalAlign=bottom;endArrow=open;endSize=8;strokeColor=#ff0000;exitX=0;exitY=0.5;exitDx=0;exitDy=0;entryX=1;entryY=0.5;entryDx=0;entryDy=0;" parent="1" source="OqOjSchPODBWyF3ketvU-54" target="OqOjSchPODBWyF3ketvU-56" edge="1">
          <mxGeometry relative="1" as="geometry">
            <mxPoint x="270" y="234" as="targetPoint" />
          </mxGeometry>
        </mxCell>
        <mxCell id="OqOjSchPODBWyF3ketvU-56" value="Vérification&amp;nbsp;&lt;br&gt;stock produit" style="rhombus;whiteSpace=wrap;html=1;fillColor=#ffffc0;strokeColor=#ff0000;" parent="1" vertex="1">
          <mxGeometry x="170" y="202" width="120" height="64" as="geometry" />
        </mxCell>
        <mxCell id="OqOjSchPODBWyF3ketvU-57" value="" style="edgeStyle=orthogonalEdgeStyle;html=1;align=left;verticalAlign=bottom;endArrow=open;endSize=8;strokeColor=#ff0000;exitX=0;exitY=0.5;exitDx=0;exitDy=0;entryX=0.5;entryY=0;entryDx=0;entryDy=0;" parent="1" source="OqOjSchPODBWyF3ketvU-56" target="OqOjSchPODBWyF3ketvU-60" edge="1">
          <mxGeometry x="-0.0286" y="-30" relative="1" as="geometry">
            <mxPoint x="50" y="290" as="targetPoint" />
            <Array as="points">
              <mxPoint x="80" y="234" />
            </Array>
            <mxPoint as="offset" />
          </mxGeometry>
        </mxCell>
        <mxCell id="OqOjSchPODBWyF3ketvU-58" value="" style="edgeStyle=orthogonalEdgeStyle;html=1;align=left;verticalAlign=top;endArrow=open;endSize=8;strokeColor=#ff0000;exitX=0.5;exitY=1;exitDx=0;exitDy=0;entryX=0.5;entryY=0;entryDx=0;entryDy=0;" parent="1" source="OqOjSchPODBWyF3ketvU-56" target="OqOjSchPODBWyF3ketvU-70" edge="1">
          <mxGeometry y="65" relative="1" as="geometry">
            <mxPoint x="210" y="370" as="targetPoint" />
            <mxPoint as="offset" />
          </mxGeometry>
        </mxCell>
        <mxCell id="OqOjSchPODBWyF3ketvU-59" value="[hors stock]" style="text;html=1;align=center;verticalAlign=middle;resizable=0;points=[];autosize=1;" parent="1" vertex="1">
          <mxGeometry x="70" y="214" width="80" height="20" as="geometry" />
        </mxCell>
        <mxCell id="OqOjSchPODBWyF3ketvU-60" value="Affichage délai approvisionnement" style="rounded=1;whiteSpace=wrap;html=1;arcSize=40;fontColor=#000000;fillColor=#ffffc0;strokeColor=#ff0000;" parent="1" vertex="1">
          <mxGeometry x="20" y="294" width="120" height="40" as="geometry" />
        </mxCell>
        <mxCell id="OqOjSchPODBWyF3ketvU-61" value="" style="edgeStyle=orthogonalEdgeStyle;html=1;verticalAlign=bottom;endArrow=open;endSize=8;strokeColor=#ff0000;entryX=0.5;entryY=0;entryDx=0;entryDy=0;" parent="1" target="OqOjSchPODBWyF3ketvU-62" edge="1">
          <mxGeometry relative="1" as="geometry">
            <mxPoint x="80" y="394" as="targetPoint" />
            <mxPoint x="80" y="334" as="sourcePoint" />
          </mxGeometry>
        </mxCell>
        <mxCell id="OqOjSchPODBWyF3ketvU-62" value="Délai&lt;br&gt;accepté" style="rhombus;whiteSpace=wrap;html=1;fillColor=#ffffc0;strokeColor=#ff0000;" parent="1" vertex="1">
          <mxGeometry x="40" y="370" width="80" height="60" as="geometry" />
        </mxCell>
        <mxCell id="OqOjSchPODBWyF3ketvU-63" value="" style="edgeStyle=orthogonalEdgeStyle;html=1;align=left;verticalAlign=bottom;endArrow=open;endSize=8;strokeColor=#ff0000;" parent="1" source="OqOjSchPODBWyF3ketvU-62" edge="1">
          <mxGeometry x="-1" relative="1" as="geometry">
            <mxPoint x="170" y="400" as="targetPoint" />
          </mxGeometry>
        </mxCell>
        <mxCell id="OqOjSchPODBWyF3ketvU-64" value="" style="edgeStyle=orthogonalEdgeStyle;html=1;align=left;verticalAlign=top;endArrow=open;endSize=8;strokeColor=#ff0000;exitX=0.5;exitY=1;exitDx=0;exitDy=0;" parent="1" source="OqOjSchPODBWyF3ketvU-62" edge="1">
          <mxGeometry x="-0.3333" y="80" relative="1" as="geometry">
            <mxPoint x="80" y="480" as="targetPoint" />
            <mxPoint as="offset" />
          </mxGeometry>
        </mxCell>
        <mxCell id="OqOjSchPODBWyF3ketvU-65" value="[non]" style="text;html=1;align=center;verticalAlign=middle;resizable=0;points=[];autosize=1;" parent="1" vertex="1">
          <mxGeometry x="40" y="440" width="40" height="20" as="geometry" />
        </mxCell>
        <mxCell id="OqOjSchPODBWyF3ketvU-67" value="" style="shape=umlDestroy;whiteSpace=wrap;html=1;strokeWidth=3;" parent="1" vertex="1">
          <mxGeometry x="65" y="475" width="30" height="30" as="geometry" />
        </mxCell>
        <mxCell id="OqOjSchPODBWyF3ketvU-68" value="[en stock]" style="text;html=1;align=center;verticalAlign=middle;resizable=0;points=[];autosize=1;" parent="1" vertex="1">
          <mxGeometry x="200" y="294" width="70" height="20" as="geometry" />
        </mxCell>
        <mxCell id="OqOjSchPODBWyF3ketvU-69" value="[oui]" style="text;html=1;align=center;verticalAlign=middle;resizable=0;points=[];autosize=1;" parent="1" vertex="1">
          <mxGeometry x="120" y="380" width="40" height="20" as="geometry" />
        </mxCell>
        <mxCell id="OqOjSchPODBWyF3ketvU-70" value="Affichage prix HT et TTC" style="rounded=1;whiteSpace=wrap;html=1;arcSize=40;fontColor=#000000;fillColor=#ffffc0;strokeColor=#ff0000;" parent="1" vertex="1">
          <mxGeometry x="170" y="380" width="120" height="40" as="geometry" />
        </mxCell>
        <mxCell id="OqOjSchPODBWyF3ketvU-71" value="" style="edgeStyle=orthogonalEdgeStyle;html=1;verticalAlign=bottom;endArrow=open;endSize=8;strokeColor=#ff0000;exitX=1;exitY=0.5;exitDx=0;exitDy=0;entryX=0;entryY=0.5;entryDx=0;entryDy=0;" parent="1" source="OqOjSchPODBWyF3ketvU-70" target="OqOjSchPODBWyF3ketvU-73" edge="1">
          <mxGeometry relative="1" as="geometry">
            <mxPoint x="330" y="400" as="targetPoint" />
          </mxGeometry>
        </mxCell>
        <mxCell id="OqOjSchPODBWyF3ketvU-72" value="[ref prod ok]" style="text;html=1;align=center;verticalAlign=middle;resizable=0;points=[];autosize=1;" parent="1" vertex="1">
          <mxGeometry x="600" y="202" width="80" height="20" as="geometry" />
        </mxCell>
        <mxCell id="OqOjSchPODBWyF3ketvU-103" value="" style="edgeStyle=orthogonalEdgeStyle;rounded=0;orthogonalLoop=1;jettySize=auto;html=1;endArrow=open;endFill=0;strokeColor=#FF0000;" parent="1" source="OqOjSchPODBWyF3ketvU-73" target="OqOjSchPODBWyF3ketvU-102" edge="1">
          <mxGeometry relative="1" as="geometry" />
        </mxCell>
        <mxCell id="OqOjSchPODBWyF3ketvU-73" value="Affiche saisie réduction" style="rounded=1;whiteSpace=wrap;html=1;arcSize=40;fontColor=#000000;fillColor=#ffffc0;strokeColor=#ff0000;" parent="1" vertex="1">
          <mxGeometry x="330" y="380" width="120" height="40" as="geometry" />
        </mxCell>
        <mxCell id="OqOjSchPODBWyF3ketvU-104" style="edgeStyle=orthogonalEdgeStyle;rounded=0;orthogonalLoop=1;jettySize=auto;html=1;exitX=1;exitY=0.5;exitDx=0;exitDy=0;entryX=0;entryY=0.5;entryDx=0;entryDy=0;endArrow=open;endFill=0;strokeColor=#FF0000;" parent="1" source="OqOjSchPODBWyF3ketvU-102" target="OqOjSchPODBWyF3ketvU-75" edge="1">
          <mxGeometry relative="1" as="geometry" />
        </mxCell>
        <mxCell id="OqOjSchPODBWyF3ketvU-102" value="Saisie réduction" style="rounded=1;whiteSpace=wrap;html=1;arcSize=40;fontColor=#000000;fillColor=#ffffc0;strokeColor=#ff0000;" parent="1" vertex="1">
          <mxGeometry x="500" y="380" width="120" height="40" as="geometry" />
        </mxCell>
        <mxCell id="OqOjSchPODBWyF3ketvU-75" value="Affichage prix avec réduction" style="rounded=1;whiteSpace=wrap;html=1;arcSize=40;fontColor=#000000;fillColor=#ffffc0;strokeColor=#ff0000;" parent="1" vertex="1">
          <mxGeometry x="670" y="380" width="120" height="40" as="geometry" />
        </mxCell>
        <mxCell id="OqOjSchPODBWyF3ketvU-76" value="" style="edgeStyle=orthogonalEdgeStyle;html=1;verticalAlign=bottom;endArrow=open;endSize=8;strokeColor=#ff0000;entryX=0.5;entryY=0;entryDx=0;entryDy=0;exitX=0.5;exitY=1;exitDx=0;exitDy=0;" parent="1" source="OqOjSchPODBWyF3ketvU-75" target="OqOjSchPODBWyF3ketvU-79" edge="1">
          <mxGeometry relative="1" as="geometry">
            <mxPoint x="560" y="480" as="targetPoint" />
          </mxGeometry>
        </mxCell>
        <mxCell id="OqOjSchPODBWyF3ketvU-78" value="" style="edgeStyle=orthogonalEdgeStyle;html=1;verticalAlign=bottom;endArrow=open;endSize=8;strokeColor=#ff0000;exitX=1;exitY=0.5;exitDx=0;exitDy=0;entryX=0;entryY=0.5;entryDx=0;entryDy=0;" parent="1" source="OqOjSchPODBWyF3ketvU-79" target="OqOjSchPODBWyF3ketvU-89" edge="1">
          <mxGeometry relative="1" as="geometry">
            <mxPoint x="690" y="490" as="targetPoint" />
            <mxPoint x="560" y="520" as="sourcePoint" />
          </mxGeometry>
        </mxCell>
        <mxCell id="OqOjSchPODBWyF3ketvU-83" style="edgeStyle=orthogonalEdgeStyle;rounded=0;orthogonalLoop=1;jettySize=auto;html=1;exitX=0;exitY=0.5;exitDx=0;exitDy=0;endArrow=open;endFill=0;strokeColor=#FF0000;" parent="1" source="OqOjSchPODBWyF3ketvU-79" target="OqOjSchPODBWyF3ketvU-67" edge="1">
          <mxGeometry relative="1" as="geometry">
            <mxPoint x="100" y="490" as="targetPoint" />
            <Array as="points" />
          </mxGeometry>
        </mxCell>
        <mxCell id="OqOjSchPODBWyF3ketvU-79" value="Confirmation&lt;br&gt;commande" style="rhombus;whiteSpace=wrap;html=1;fillColor=#ffffc0;strokeColor=#ff0000;direction=east;" parent="1" vertex="1">
          <mxGeometry x="510" y="455" width="100" height="70" as="geometry" />
        </mxCell>
        <mxCell id="OqOjSchPODBWyF3ketvU-84" value="[non]" style="text;html=1;align=center;verticalAlign=middle;resizable=0;points=[];autosize=1;" parent="1" vertex="1">
          <mxGeometry x="430" y="470" width="40" height="20" as="geometry" />
        </mxCell>
        <mxCell id="OqOjSchPODBWyF3ketvU-88" value="[oui]" style="text;html=1;align=center;verticalAlign=middle;resizable=0;points=[];autosize=1;" parent="1" vertex="1">
          <mxGeometry x="620" y="470" width="40" height="20" as="geometry" />
        </mxCell>
        <mxCell id="OqOjSchPODBWyF3ketvU-89" value="Enregistrement de la commande" style="rounded=1;whiteSpace=wrap;html=1;arcSize=40;fontColor=#000000;fillColor=#ffffc0;strokeColor=#ff0000;" parent="1" vertex="1">
          <mxGeometry x="690" y="470" width="120" height="40" as="geometry" />
        </mxCell>
        <mxCell id="OqOjSchPODBWyF3ketvU-90" value="" style="edgeStyle=orthogonalEdgeStyle;html=1;verticalAlign=bottom;endArrow=open;endSize=8;strokeColor=#ff0000;entryX=0.5;entryY=0;entryDx=0;entryDy=0;" parent="1" source="OqOjSchPODBWyF3ketvU-89" target="OqOjSchPODBWyF3ketvU-91" edge="1">
          <mxGeometry relative="1" as="geometry">
            <mxPoint x="750" y="570" as="targetPoint" />
          </mxGeometry>
        </mxCell>
        <mxCell id="OqOjSchPODBWyF3ketvU-94" value="" style="edgeStyle=orthogonalEdgeStyle;rounded=0;orthogonalLoop=1;jettySize=auto;html=1;endArrow=open;endFill=0;strokeColor=#FF0000;" parent="1" source="OqOjSchPODBWyF3ketvU-91" target="OqOjSchPODBWyF3ketvU-93" edge="1">
          <mxGeometry relative="1" as="geometry" />
        </mxCell>
        <mxCell id="OqOjSchPODBWyF3ketvU-91" value="Attribution numéro de commande" style="rounded=1;whiteSpace=wrap;html=1;arcSize=40;fontColor=#000000;fillColor=#ffffc0;strokeColor=#ff0000;" parent="1" vertex="1">
          <mxGeometry x="690" y="560" width="120" height="40" as="geometry" />
        </mxCell>
        <mxCell id="OqOjSchPODBWyF3ketvU-98" value="" style="edgeStyle=orthogonalEdgeStyle;rounded=0;orthogonalLoop=1;jettySize=auto;html=1;endArrow=open;endFill=0;strokeColor=#FF0000;" parent="1" source="OqOjSchPODBWyF3ketvU-93" target="OqOjSchPODBWyF3ketvU-97" edge="1">
          <mxGeometry relative="1" as="geometry" />
        </mxCell>
        <mxCell id="OqOjSchPODBWyF3ketvU-93" value="Édition bon de commande" style="rounded=1;whiteSpace=wrap;html=1;arcSize=40;fontColor=#000000;fillColor=#ffffc0;strokeColor=#ff0000;" parent="1" vertex="1">
          <mxGeometry x="500" y="560" width="120" height="40" as="geometry" />
        </mxCell>
        <mxCell id="OqOjSchPODBWyF3ketvU-100" value="" style="edgeStyle=orthogonalEdgeStyle;rounded=0;orthogonalLoop=1;jettySize=auto;html=1;endArrow=open;endFill=0;strokeColor=#FF0000;entryX=0.5;entryY=0;entryDx=0;entryDy=0;" parent="1" source="OqOjSchPODBWyF3ketvU-97" target="wO8JUEBBTBRM_X7r80HG-1" edge="1">
          <mxGeometry relative="1" as="geometry">
            <mxPoint x="560" y="710" as="targetPoint" />
          </mxGeometry>
        </mxCell>
        <mxCell id="OqOjSchPODBWyF3ketvU-97" value="Édition facture" style="rounded=1;whiteSpace=wrap;html=1;arcSize=40;fontColor=#000000;fillColor=#ffffc0;strokeColor=#ff0000;" parent="1" vertex="1">
          <mxGeometry x="500" y="630" width="120" height="40" as="geometry" />
        </mxCell>
        <mxCell id="OqOjSchPODBWyF3ketvU-101" value="" style="ellipse;html=1;shape=endState;fillColor=#000000;strokeColor=#ff0000;" parent="1" vertex="1">
          <mxGeometry x="545" y="790" width="30" height="30" as="geometry" />
        </mxCell>
        <mxCell id="wO8JUEBBTBRM_X7r80HG-1" value="Activity" style="rounded=1;whiteSpace=wrap;html=1;arcSize=40;fontColor=#000000;fillColor=#ffffc0;strokeColor=#ff0000;" parent="1" vertex="1">
          <mxGeometry x="500" y="710" width="120" height="40" as="geometry" />
        </mxCell>
        <mxCell id="wO8JUEBBTBRM_X7r80HG-2" value="" style="edgeStyle=orthogonalEdgeStyle;html=1;verticalAlign=bottom;endArrow=open;endSize=8;strokeColor=#ff0000;" parent="1" source="wO8JUEBBTBRM_X7r80HG-1" edge="1">
          <mxGeometry relative="1" as="geometry">
            <mxPoint x="560" y="790" as="targetPoint" />
          </mxGeometry>
        </mxCell>
      </root>
    </mxGraphModel>
  </diagram>
</mxfile>
